<svg id="Layer_1" data-name="Layer 1" xmlns="http://www.w3.org/2000/svg" viewBox="0 0 331.6 107.34"><defs><style>.cls-1{fill:#a9dad6;}.cls-1,.cls-2,.cls-3{stroke:#fff;stroke-miterlimit:10;stroke-width:8px;}.cls-2{fill:#ffc23a;}.cls-3{fill:#ffc0b7;}</style></defs><path class="cls-1" d="M56.94,41.89,77.51,7.83a18,18,0,0,1,1.85-2.27A5.46,5.46,0,0,1,83.62,4H106a3.69,3.69,0,0,1,2.7,1.14,3.68,3.68,0,0,1,1.13,2.69V99.51a3.72,3.72,0,0,1-1.13,2.7,3.68,3.68,0,0,1-2.7,1.13H80.35a3.64,3.64,0,0,1-2.69-1.13,3.69,3.69,0,0,1-1.14-2.7V60.63L67.15,76a13.6,13.6,0,0,1-1.91,2.35,4.54,4.54,0,0,1-3.34,1.2H52a4.54,4.54,0,0,1-3.34-1.2A13.6,13.6,0,0,1,46.72,76L37.35,60.63V99.51a3.72,3.72,0,0,1-1.13,2.7,3.68,3.68,0,0,1-2.7,1.13H7.83a3.64,3.64,0,0,1-2.69-1.13A3.69,3.69,0,0,1,4,99.51V7.83A3.65,3.65,0,0,1,5.14,5.14,3.65,3.65,0,0,1,7.83,4H30.26a5.45,5.45,0,0,1,4.25,1.56,18,18,0,0,1,1.85,2.27Z"/><path class="cls-2" d="M131.31,103.34a3.64,3.64,0,0,1-2.69-1.13,3.69,3.69,0,0,1-1.14-2.7V7.83a3.65,3.65,0,0,1,1.14-2.69A3.65,3.65,0,0,1,131.31,4h47.12q20.44,0,29.88,7.38t9.43,22.42a17.39,17.39,0,0,1-1.13,6.32,20.41,20.41,0,0,1-2.84,5.11,24,24,0,0,1-3.69,3.83,19.68,19.68,0,0,1-3.69,2.48,21,21,0,0,1,5.18,3.2,23.06,23.06,0,0,1,4.33,4.75,23.61,23.61,0,0,1,2.91,5.89,21.19,21.19,0,0,1,1.06,6.74q0,16-10.29,23.63t-29.73,7.59Zm49.39-68.4a8.12,8.12,0,0,0-1.35-4.4,4.88,4.88,0,0,0-4.47-2.13H163V41.33h11.92a5,5,0,0,0,4.47-2.06A7.78,7.78,0,0,0,180.7,34.94ZM163,78.93h13.2c2.36,0,4.05-.75,5-2.27A8.43,8.43,0,0,0,182.69,72a7.85,7.85,0,0,0-1.63-4.75,5.7,5.7,0,0,0-4.9-2.2H163Z"/><path class="cls-3" d="M323.77,4a3.69,3.69,0,0,1,2.7,1.14,3.68,3.68,0,0,1,1.13,2.69V99.51a3.72,3.72,0,0,1-1.13,2.7,3.68,3.68,0,0,1-2.7,1.13H296a3.64,3.64,0,0,1-2.69-1.13,3.69,3.69,0,0,1-1.14-2.7V68.86h-23V99.51a3.72,3.72,0,0,1-1.13,2.7,3.68,3.68,0,0,1-2.7,1.13H237.48a3.78,3.78,0,0,1-2.69-1.06,3.61,3.61,0,0,1-1.14-2.77V7.83a3.65,3.65,0,0,1,1.14-2.69A3.65,3.65,0,0,1,237.48,4H265.3A3.69,3.69,0,0,1,268,5.14a3.68,3.68,0,0,1,1.13,2.69V37.64h23V7.83a3.65,3.65,0,0,1,1.14-2.69A3.65,3.65,0,0,1,296,4Z"/></svg>